<?xml version="1.0" encoding="UTF-8"?>
<svg id="Layer_2" data-name="Layer 2" xmlns="http://www.w3.org/2000/svg" viewBox="0 0 248 56.03">
  <defs>
    <style>
      .cls-1 {
        fill: #fff;
      }

      .cls-2 {
        fill: #aed136;
      }
    </style>
  </defs>
  <g id="Layer_1-2" data-name="Layer 1">
    <g>
      <g>
        <path class="cls-1" d="M10.92,56.03c-3.28,0-5.87-.68-7.78-2.04s-2.95-3.26-3.14-5.7H3.79c.19,1.56,.87,2.71,2.06,3.47,1.18,.75,2.91,1.13,5.2,1.13,4.11,0,6.16-1.32,6.16-3.95,0-1.07-.32-1.9-.95-2.48-.63-.58-1.7-1-3.2-1.27l-5.28-.97c-4.38-.81-6.57-2.9-6.57-6.29,0-2.18,.82-3.89,2.46-5.16s3.88-1.89,6.73-1.89,5.27,.64,7.03,1.93,2.77,3.09,3.04,5.4h-3.71c-.3-1.42-.97-2.48-2.02-3.16s-2.51-1.03-4.39-1.03-3.18,.32-4.15,.95c-.97,.63-1.45,1.55-1.45,2.76,0,.91,.32,1.63,.95,2.16,.63,.52,1.66,.92,3.08,1.19l5.24,.97c2.31,.43,4,1.18,5.08,2.26,1.07,1.08,1.61,2.53,1.61,4.35,0,2.34-.85,4.15-2.54,5.44s-4.11,1.93-7.25,1.93Z"/>
        <path class="cls-1" d="M35.31,56.03c-2.47,0-4.62-.52-6.45-1.55-1.83-1.03-3.24-2.51-4.23-4.41-.99-1.91-1.49-4.14-1.49-6.69s.5-4.76,1.49-6.63c.99-1.87,2.39-3.31,4.19-4.33,1.8-1.02,3.91-1.53,6.33-1.53,2.28,0,4.26,.46,5.92,1.39s2.96,2.24,3.89,3.93,1.39,3.69,1.39,6v1.69H26.76c.11,2.77,.92,4.93,2.44,6.49,1.52,1.56,3.54,2.34,6.06,2.34,1.75,0,3.23-.38,4.45-1.13,1.22-.75,2.06-1.84,2.52-3.27h3.87c-.62,2.45-1.87,4.34-3.77,5.68-1.89,1.34-4.24,2.02-7.03,2.02Zm-8.34-15.03h15.72c-.19-2.18-.95-3.87-2.3-5.08-1.34-1.21-3.1-1.81-5.28-1.81s-3.98,.6-5.42,1.81c-1.44,1.21-2.34,2.9-2.72,5.08Z"/>
        <path class="cls-1" d="M56.95,55.54l-10.28-24.18h3.91l8.58,20.47h.16l8.46-20.47h3.79l-10.28,24.18h-4.35Z"/>
        <path class="cls-1" d="M84.08,56.03c-2.47,0-4.62-.52-6.45-1.55-1.83-1.03-3.24-2.51-4.23-4.41-.99-1.91-1.49-4.14-1.49-6.69s.5-4.76,1.49-6.63c.99-1.87,2.39-3.31,4.19-4.33,1.8-1.02,3.91-1.53,6.33-1.53,2.28,0,4.26,.46,5.92,1.39s2.96,2.24,3.89,3.93,1.39,3.69,1.39,6v1.69h-19.58c.11,2.77,.92,4.93,2.44,6.49,1.52,1.56,3.54,2.34,6.06,2.34,1.75,0,3.23-.38,4.45-1.13,1.22-.75,2.06-1.84,2.52-3.27h3.87c-.62,2.45-1.87,4.34-3.77,5.68-1.89,1.34-4.24,2.02-7.03,2.02Zm-8.34-15.03h15.72c-.19-2.18-.95-3.87-2.3-5.08-1.34-1.21-3.1-1.81-5.28-1.81s-3.98,.6-5.42,1.81c-1.44,1.21-2.34,2.9-2.72,5.08Z"/>
        <path class="cls-1" d="M99.08,55.54v-20.15h-2.02v-4.03h4.19v3.63h1.69c.81-1.34,1.94-2.36,3.4-3.04,1.46-.68,3.14-1.03,5.02-1.03,3.03,0,5.45,.89,7.25,2.66,1.8,1.77,2.7,4.14,2.7,7.09v14.87h-3.79v-14.31c0-2.28-.62-4.02-1.87-5.22-1.25-1.2-3.07-1.79-5.46-1.79s-4.18,.6-5.44,1.79c-1.26,1.2-1.89,2.94-1.89,5.22v14.31h-3.79Z"/>
      </g>
      <g>
        <path class="cls-1" d="M163.35,55.54v-20.13h-2.01v-4.03h4.19v3.62h1.69c.8-1.34,1.94-2.35,3.4-3.04,1.46-.68,3.13-1.03,5.01-1.03,3.03,0,5.45,.89,7.24,2.66,1.8,1.77,2.7,4.13,2.7,7.08v14.85h-3.78v-14.29c0-2.28-.62-4.02-1.87-5.21-1.25-1.19-3.07-1.79-5.45-1.79s-4.17,.6-5.43,1.79c-1.26,1.19-1.89,2.93-1.89,5.21v14.29h-3.78Z"/>
        <path class="cls-1" d="M192.11,27.77c-.67,0-1.24-.23-1.71-.71-.47-.47-.7-1.04-.7-1.71s.23-1.24,.7-1.71c.47-.47,1.04-.7,1.71-.7s1.24,.23,1.71,.7c.47,.47,.7,1.04,.7,1.71s-.23,1.24-.7,1.71-1.04,.71-1.71,.71Zm-1.89,27.77V31.39h3.78v24.15h-3.78Z"/>
        <path class="cls-1" d="M199.61,55.54v-20.13h-2.01v-4.03h4.19v3.62h1.69c.8-1.34,1.94-2.35,3.4-3.04,1.46-.68,3.13-1.03,5.01-1.03,3.03,0,5.45,.89,7.24,2.66,1.8,1.77,2.7,4.13,2.7,7.08v14.85h-3.78v-14.29c0-2.28-.62-4.02-1.87-5.21-1.25-1.19-3.07-1.79-5.45-1.79s-4.17,.6-5.43,1.79c-1.26,1.19-1.89,2.93-1.89,5.21v14.29h-3.78Z"/>
        <path class="cls-1" d="M236.97,56.03c-2.47,0-4.62-.52-6.44-1.55-1.83-1.03-3.23-2.5-4.23-4.41-.99-1.91-1.49-4.13-1.49-6.68s.5-4.76,1.49-6.62c.99-1.86,2.39-3.31,4.19-4.33,1.8-1.02,3.9-1.53,6.32-1.53,2.28,0,4.25,.46,5.92,1.39,1.66,.93,2.96,2.23,3.88,3.92s1.39,3.69,1.39,6v1.69h-19.56c.11,2.76,.92,4.93,2.44,6.48,1.52,1.56,3.53,2.33,6.06,2.33,1.74,0,3.23-.38,4.45-1.13,1.22-.75,2.06-1.84,2.52-3.26h3.86c-.62,2.44-1.87,4.34-3.76,5.68-1.89,1.34-4.23,2.01-7.02,2.01Zm-8.33-15.01h15.7c-.19-2.17-.95-3.86-2.29-5.07-1.34-1.21-3.1-1.81-5.27-1.81s-3.98,.6-5.41,1.81c-1.44,1.21-2.34,2.9-2.72,5.07Z"/>
      </g>
      <g>
        <polygon class="cls-2" points="133.11 23.87 133.11 19.89 129.13 19.89 129.13 23.87 129.13 27.85 129.13 31.83 133.11 31.83 133.11 27.85 133.11 23.87"/>
        <polygon class="cls-2" points="149.02 27.85 149.02 31.83 153 31.83 153 27.85 153 23.87 153 19.89 149.02 19.89 149.02 23.87 149.02 27.85"/>
        <polygon class="cls-2" points="133.11 7.96 133.11 3.98 129.13 3.98 129.13 7.96 129.13 11.94 129.13 15.91 133.11 15.91 133.11 11.94 133.11 7.96"/>
        <polygon class="cls-2" points="149.02 3.98 149.02 7.96 149.02 11.94 149.02 15.91 153 15.91 153 11.94 153 7.96 153 3.98 149.02 3.98"/>
        <polygon class="cls-2" points="141.06 3.98 145.04 3.98 149.02 3.98 149.02 0 145.04 0 141.06 0 137.09 0 133.11 0 133.11 3.98 137.09 3.98 141.06 3.98"/>
        <polygon class="cls-2" points="141.06 31.83 137.09 31.83 133.11 31.83 133.11 35.81 137.09 35.81 141.06 35.81 145.04 35.81 149.02 35.81 149.02 31.83 145.04 31.83 141.06 31.83"/>
        <polygon class="cls-2" points="141.06 15.91 137.09 15.91 133.11 15.91 133.11 19.89 137.09 19.89 141.06 19.89 145.04 19.89 149.02 19.89 149.02 15.91 145.04 15.91 141.06 15.91"/>
      </g>
    </g>
  </g>
</svg>